<?xml version="1.0" encoding="iso-8859-1"?>
<!-- Generator: Adobe Illustrator 19.1.0, SVG Export Plug-In . SVG Version: 6.00 Build 0)  -->
<svg version="1.1" id="Capa_1" xmlns="http://www.w3.org/2000/svg" xmlns:xlink="http://www.w3.org/1999/xlink" x="0px" y="0px"
	 viewBox="0 0 395.445 395.445" style="enable-background:new 0 0 395.445 395.445;" xml:space="preserve">
<g>
	<g>
		<path style="fill:#ffffff;" d="M109.167,128.705c8.437-42.901,25.121-75.078,50.052-96.529C184.15,10.726,216.052,0,254.925,0
			c16.135,0,29.518,1.007,40.149,3.021c10.63,2.015,21.26,4.672,31.891,7.973l-10.994,44.009c-8.795-3.301-18.419-5.961-28.87-7.981
			c-10.452-2.019-21.177-3.029-32.176-3.03c-13.931,0-26.123,2.017-36.574,6.051s-19.437,9.719-26.956,17.053
			c-7.52,7.335-13.663,16.228-18.43,26.679c-4.767,10.452-8.432,22.094-10.994,34.929h128.151l-7.704,39.595H156.467
			c-0.369,4.767-0.554,9.534-0.554,14.301s0,9.719,0,14.854c0,4.756,0,9.335,0,13.738s0.185,8.619,0.554,12.647h114.958
			l-7.704,39.612H160.864c6.233,32.63,17.509,55.362,33.829,68.196c16.32,12.835,36.761,19.252,61.323,19.252
			c15.408,0,28.702-1.469,39.88-4.406s21.171-6.42,29.977-10.448l10.994,43.455c-6.233,3.301-17.048,6.784-32.445,10.448
			c-15.397,3.665-32.451,5.497-51.16,5.497c-42.891,0-76.071-11.643-99.541-34.929c-23.471-23.286-38.686-55.641-45.646-97.066
			H58.578v-39.612h45.1c-0.369-4.028-0.554-8.244-0.554-12.647s0-8.982,0-13.738c0-5.136,0-10.087,0-14.854
			s0.185-9.534,0.554-14.301h-45.1v-39.595L109.167,128.705L109.167,128.705z"/>
	</g>
	<g>
	</g>
	<g>
	</g>
	<g>
	</g>
	<g>
	</g>
	<g>
	</g>
	<g>
	</g>
	<g>
	</g>
	<g>
	</g>
	<g>
	</g>
	<g>
	</g>
	<g>
	</g>
	<g>
	</g>
	<g>
	</g>
	<g>
	</g>
	<g>
	</g>
</g>
<g>
</g>
<g>
</g>
<g>
</g>
<g>
</g>
<g>
</g>
<g>
</g>
<g>
</g>
<g>
</g>
<g>
</g>
<g>
</g>
<g>
</g>
<g>
</g>
<g>
</g>
<g>
</g>
<g>
</g>
</svg>
