<?xml version="1.0" encoding="iso-8859-1"?>
<!-- Generator: Adobe Illustrator 16.0.0, SVG Export Plug-In . SVG Version: 6.00 Build 0)  -->
<!DOCTYPE svg PUBLIC "-//W3C//DTD SVG 1.1//EN" "http://www.w3.org/Graphics/SVG/1.1/DTD/svg11.dtd">
<svg version="1.1" id="Capa_1" xmlns="http://www.w3.org/2000/svg" xmlns:xlink="http://www.w3.org/1999/xlink" x="0px" y="0px"
	 width="478.125px" height="478.125px" viewBox="0 0 478.125 478.125" style="enable-background:new 0 0 478.125 478.125;"
	 xml:space="preserve">
<g>
	<path d="M239.062,0C107.1,0,0,107.1,0,239.062c0,131.963,107.1,239.062,239.062,239.062c131.963,0,239.062-107.1,239.062-239.062
		C478.125,107.1,371.025,0,239.062,0z M19.125,239.062c0-57.375,21.038-109.013,57.375-147.263
		c36.337,38.25,57.375,91.8,57.375,147.263c0,55.463-21.038,109.013-57.375,147.263C40.163,348.075,19.125,296.438,19.125,239.062z
		 M239.062,459c-57.375,0-109.013-22.95-149.175-57.375C128.138,359.55,153,302.175,153,239.062S130.05,120.487,89.888,76.5
		c38.25-36.337,91.8-57.375,149.175-57.375S348.075,42.075,388.237,76.5c-38.25,42.075-63.112,99.45-63.112,162.562
		s22.95,118.575,63.112,162.562C348.075,436.05,296.438,459,239.062,459z M401.625,386.325
		c-36.338-38.25-57.375-91.8-57.375-147.263c0-55.462,21.037-109.013,57.375-147.263C437.963,130.05,459,183.6,459,239.062
		C459,294.525,437.963,348.075,401.625,386.325z"/>
</g>
<g>
</g>
<g>
</g>
<g>
</g>
<g>
</g>
<g>
</g>
<g>
</g>
<g>
</g>
<g>
</g>
<g>
</g>
<g>
</g>
<g>
</g>
<g>
</g>
<g>
</g>
<g>
</g>
<g>
</g>
</svg>
